HIERARCHY
ROOT hips_JNT
{
  OFFSET 0.000000 0.000000 0.000000
  CHANNELS 6 Xposition Yposition Zposition Zrotation Xrotation Yrotation
  JOINT spine_JNT
  {
    OFFSET 0.000000 4.130373 -0.008512
    CHANNELS 6 Xposition Yposition Zposition Zrotation Xrotation Yrotation
    JOINT spine1_JNT
    {
      OFFSET 0.000000 10.693992 -0.005568
      CHANNELS 6 Xposition Yposition Zposition Zrotation Xrotation Yrotation
      JOINT spine2_JNT
      {
        OFFSET 0.000000 10.153212 -0.012624
        CHANNELS 6 Xposition Yposition Zposition Zrotation Xrotation Yrotation
        JOINT neck_JNT
        {
          OFFSET 0.000000 17.065638 0.263754
          CHANNELS 6 Xposition Yposition Zposition Zrotation Xrotation Yrotation
          JOINT head_JNT
          {
            OFFSET 0.000000 8.137577 0.007754
            CHANNELS 6 Xposition Yposition Zposition Zrotation Xrotation Yrotation
            JOINT r_eye_LOC
            {
              OFFSET -5.100100 12.306628 9.664178
              CHANNELS 6 Xposition Yposition Zposition Zrotation Xrotation Yrotation
              End Site
              {
                OFFSET 0.000000 0.000000 0.000000
              }
            }
            JOINT l_eye_LOC
            {
              OFFSET 5.100100 12.306628 9.664178
              CHANNELS 6 Xposition Yposition Zposition Zrotation Xrotation Yrotation
              End Site
              {
                OFFSET 0.000000 0.000000 0.000000
              }
            }
          }
        }
        JOINT r_shoulder_JNT
        {
          OFFSET -2.886765 12.539096 -0.534970
          CHANNELS 6 Xposition Yposition Zposition Zrotation Xrotation Yrotation
          JOINT r_arm_JNT
          {
            OFFSET -10.265322 -0.000050 -0.000020
            CHANNELS 6 Xposition Yposition Zposition Zrotation Xrotation Yrotation
            JOINT r_forearm_JNT
            {
              OFFSET -25.572863 0.000000 -0.000009
              CHANNELS 6 Xposition Yposition Zposition Zrotation Xrotation Yrotation
              JOINT r_hand_JNT
              {
                OFFSET -19.807005 -0.346000 -0.000001
                CHANNELS 6 Xposition Yposition Zposition Zrotation Xrotation Yrotation
                JOINT r_handThumb1_JNT
                {
                  OFFSET -1.817488 -1.260972 3.617090
                  CHANNELS 6 Xposition Yposition Zposition Zrotation Xrotation Yrotation
                  JOINT r_handThumb2_JNT
                  {
                    OFFSET -2.639243 -0.023618 -0.053143
                    CHANNELS 6 Xposition Yposition Zposition Zrotation Xrotation Yrotation
                    JOINT r_handThumb3_JNT
                    {
                      OFFSET -2.698978 -0.823875 0.000033
                      CHANNELS 6 Xposition Yposition Zposition Zrotation Xrotation Yrotation
                      End Site
                      {
                        OFFSET -3.875300 -0.611784 -0.000028
                      }
                    }
                  }
                }
                JOINT r_handIndex1_JNT
                {
                  OFFSET -8.251890 -0.108337 3.749100
                  CHANNELS 6 Xposition Yposition Zposition Zrotation Xrotation Yrotation
                  JOINT r_handIndex2_JNT
                  {
                    OFFSET -3.896140 0.288500 -0.000463
                    CHANNELS 6 Xposition Yposition Zposition Zrotation Xrotation Yrotation
                    JOINT r_handIndex3_JNT
                    {
                      OFFSET -2.318387 0.159236 -0.000487
                      CHANNELS 6 Xposition Yposition Zposition Zrotation Xrotation Yrotation
                      End Site
                      {
                        OFFSET -2.565999 -0.000006 -0.000002
                      }
                    }
                  }
                }
                JOINT r_handMiddle1_JNT
                {
                  OFFSET -9.047189 0.040404 1.280809
                  CHANNELS 6 Xposition Yposition Zposition Zrotation Xrotation Yrotation
                  JOINT r_handMiddle2_JNT
                  {
                    OFFSET -3.918013 0.058125 -0.000245
                    CHANNELS 6 Xposition Yposition Zposition Zrotation Xrotation Yrotation
                    JOINT r_handMiddle3_JNT
                    {
                      OFFSET -2.517173 0.020933 -0.000344
                      CHANNELS 6 Xposition Yposition Zposition Zrotation Xrotation Yrotation
                      End Site
                      {
                        OFFSET -2.488746 -0.000003 -0.000001
                      }
                    }
                  }
                }
                JOINT r_handRing1_JNT
                {
                  OFFSET -8.770376 -0.316066 -1.406740
                  CHANNELS 6 Xposition Yposition Zposition Zrotation Xrotation Yrotation
                  JOINT r_handRing2_JNT
                  {
                    OFFSET -3.670816 0.003664 0.000012
                    CHANNELS 6 Xposition Yposition Zposition Zrotation Xrotation Yrotation
                    JOINT r_handRing3_JNT
                    {
                      OFFSET -2.391655 0.005686 -0.000005
                      CHANNELS 6 Xposition Yposition Zposition Zrotation Xrotation Yrotation
                      End Site
                      {
                        OFFSET -2.137327 -0.000002 0.000000
                      }
                    }
                  }
                }
                JOINT r_handPinky1_JNT
                {
                  OFFSET -7.380626 -1.009364 -3.361094
                  CHANNELS 6 Xposition Yposition Zposition Zrotation Xrotation Yrotation
                  JOINT r_handPinky2_JNT
                  {
                    OFFSET -2.923373 0.065774 -0.000015
                    CHANNELS 6 Xposition Yposition Zposition Zrotation Xrotation Yrotation
                    JOINT r_handPinky3_JNT
                    {
                      OFFSET -1.903112 -0.013694 0.000004
                      CHANNELS 6 Xposition Yposition Zposition Zrotation Xrotation Yrotation
                      End Site
                      {
                        OFFSET -1.808159 -0.000003 0.000001
                      }
                    }
                  }
                }
              }
            }
          }
        }
        JOINT l_shoulder_JNT
        {
          OFFSET 2.886657 12.539132 -0.534974
          CHANNELS 6 Xposition Yposition Zposition Zrotation Xrotation Yrotation
          JOINT l_arm_JNT
          {
            OFFSET 10.265323 0.000035 0.000019
            CHANNELS 6 Xposition Yposition Zposition Zrotation Xrotation Yrotation
            JOINT l_forearm_JNT
            {
              OFFSET 25.572872 0.000003 0.000003
              CHANNELS 6 Xposition Yposition Zposition Zrotation Xrotation Yrotation
              JOINT l_hand_JNT
              {
                OFFSET 19.806792 -0.345714 0.000008
                CHANNELS 6 Xposition Yposition Zposition Zrotation Xrotation Yrotation
                JOINT l_handThumb1_JNT
                {
                  OFFSET 1.812944 -1.252033 3.615281
                  CHANNELS 6 Xposition Yposition Zposition Zrotation Xrotation Yrotation
                  JOINT l_handThumb2_JNT
                  {
                    OFFSET 2.639235 -0.023623 -0.053106
                    CHANNELS 6 Xposition Yposition Zposition Zrotation Xrotation Yrotation
                    JOINT l_handThumb3_JNT
                    {
                      OFFSET 2.817296 0.161941 -0.000019
                      CHANNELS 6 Xposition Yposition Zposition Zrotation Xrotation Yrotation
                      End Site
                      {
                        OFFSET 3.875300 -0.611784 -0.000028
                      }
                    }
                  }
                }
                JOINT l_handIndex1_JNT
                {
                  OFFSET 8.246994 -0.097605 3.748598
                  CHANNELS 6 Xposition Yposition Zposition Zrotation Xrotation Yrotation
                  JOINT l_handIndex2_JNT
                  {
                    OFFSET 3.896263 0.286875 -0.000004
                    CHANNELS 6 Xposition Yposition Zposition Zrotation Xrotation Yrotation
                    JOINT l_handIndex3_JNT
                    {
                      OFFSET 2.318424 0.158303 -0.000001
                      CHANNELS 6 Xposition Yposition Zposition Zrotation Xrotation Yrotation
                      End Site
                      {
                        OFFSET 2.565999 -0.000006 -0.000002
                      }
                    }
                  }
                }
                JOINT l_handMiddle1_JNT
                {
                  OFFSET 9.042166 0.054560 1.280483
                  CHANNELS 6 Xposition Yposition Zposition Zrotation Xrotation Yrotation
                  JOINT l_handMiddle2_JNT
                  {
                    OFFSET 3.918027 0.055923 -0.000003
                    CHANNELS 6 Xposition Yposition Zposition Zrotation Xrotation Yrotation
                    JOINT l_handMiddle3_JNT
                    {
                      OFFSET 2.517179 0.019623 -0.000001
                      CHANNELS 6 Xposition Yposition Zposition Zrotation Xrotation Yrotation
                      End Site
                      {
                        OFFSET 2.488746 -0.000003 -0.000001
                      }
                    }
                  }
                }
                JOINT l_handRing1_JNT
                {
                  OFFSET 8.765368 -0.298586 -1.407511
                  CHANNELS 6 Xposition Yposition Zposition Zrotation Xrotation Yrotation
                  JOINT l_handRing2_JNT
                  {
                    OFFSET 3.670795 0.003694 0.000002
                    CHANNELS 6 Xposition Yposition Zposition Zrotation Xrotation Yrotation
                    JOINT l_handRing3_JNT
                    {
                      OFFSET 2.391658 0.005747 0.000001
                      CHANNELS 6 Xposition Yposition Zposition Zrotation Xrotation Yrotation
                      End Site
                      {
                        OFFSET 2.137327 -0.000002 0.000000
                      }
                    }
                  }
                }
                JOINT l_handPinky1_JNT
                {
                  OFFSET 7.375719 -0.989721 -3.362722
                  CHANNELS 6 Xposition Yposition Zposition Zrotation Xrotation Yrotation
                  JOINT l_handPinky2_JNT
                  {
                    OFFSET 2.923453 0.065764 0.000007
                    CHANNELS 6 Xposition Yposition Zposition Zrotation Xrotation Yrotation
                    JOINT l_handPinky3_JNT
                    {
                      OFFSET 1.903052 -0.013621 0.000002
                      CHANNELS 6 Xposition Yposition Zposition Zrotation Xrotation Yrotation
                      End Site
                      {
                        OFFSET 1.808159 -0.000003 0.000001
                      }
                    }
                  }
                }
              }
            }
          }
        }
      }
    }
  }
}
MOTION
Frames: 4
Frame Time: 0.033333
0.000008 0.000008 0.000008 0.000000 -3.998069 0.000000 0.000000 4.130373 -0.008512 0.000000 2.399230 0.000000 0.000000 10.693992 -0.005568 -1.943005 -2.405870 9.770301 0.000000 10.153212 -0.012624 0.000000 -6.511725 0.000000 0.000000 17.065638 0.263754 0.000000 24.405440 0.000000 0.000000 8.137577 0.007754 4.939944 -9.951244 -1.709590 -5.100100 12.306628 9.664178 0.000000 0.352941 0.352941 5.100100 12.306628 9.664178 0.000000 0.352941 0.352941 -2.886765 12.539096 -0.534970 0.000000 5.604690 0.000000 -10.265322 -0.000050 -0.000020 53.261409 -1.143365 64.881646 -25.572863 0.000000 -0.000009 -18.685579 -1.337374 46.568882 -19.807005 -0.346000 -0.000001 38.908164 17.597704 -5.423208 -1.817488 -1.260972 3.617090 -62.792304 51.980962 74.028205 -2.639243 -0.023618 -0.053143 10.588235 0.000000 0.000000 -2.698978 -0.823875 0.000033 26.117647 0.000000 0.000000 -8.251890 -0.108337 3.749100 10.997149 5.968955 -10.526927 -3.896140 0.288500 -0.000463 -7.764706 0.000000 0.000000 -2.318387 0.159236 -0.000487 -7.764706 0.000000 0.000000 -9.047189 0.040404 1.280809 7.192707 5.013329 -1.324717 -3.918013 0.058125 -0.000245 0.705882 0.000000 0.000000 -2.517173 0.020933 -0.000344 -6.352941 0.000000 0.000000 -8.770376 -0.316066 -1.406740 6.378380 2.705138 7.310243 -3.670816 0.003664 0.000012 0.705882 0.000000 0.000000 -2.391655 0.005686 -0.000005 -6.352941 0.000000 0.000000 -7.380626 -1.009364 -3.361094 10.642560 -9.847736 7.947756 -2.923373 0.065774 -0.000015 0.705882 0.000000 0.000000 -1.903112 -0.013694 0.000004 0.705882 0.000000 0.000000 2.886657 12.539132 -0.534974 0.000000 5.555672 0.000000 10.265323 0.000035 0.000019 -79.782444 -6.821611 18.677024 25.572872 0.000003 0.000003 30.104081 -23.080853 -95.542857 19.806792 -0.345714 0.000008 -85.721350 -19.812868 31.305129 1.812944 -1.252033 3.615281 70.576534 53.158683 -80.284005 2.639235 -0.023623 -0.053106 -31.764706 0.000000 0.000000 2.817296 0.161941 -0.000019 -7.764706 0.000000 0.000000 8.246994 -0.097605 3.748598 -3.769959 5.972327 10.350046 3.896263 0.286875 -0.000004 7.764706 0.000000 0.000000 2.318424 0.158303 -0.000001 7.764706 0.000000 0.000000 9.042166 0.054560 1.280483 0.116902 -4.310234 0.970487 3.918027 0.055923 -0.000003 -3.529412 0.000000 0.000000 2.517179 0.019623 -0.000001 6.352941 0.000000 0.000000 8.765368 -0.298586 -1.407511 0.954180 2.357008 -7.132165 3.670795 0.003694 0.000002 0.705882 0.000000 0.000000 2.391658 0.005747 0.000001 6.352941 0.000000 0.000000 7.375719 -0.989721 -3.362722 -3.614890 -9.669302 -8.122012 2.923453 0.065764 0.000007 0.705882 0.000000 0.000000 1.903052 -0.013621 0.000002 0.705882 0.000000 0.000000
0.000008 0.000008 0.000008 0.000000 -3.998069 0.000000 0.000000 4.130373 -0.008512 0.000000 2.399230 0.000000 0.000000 10.693992 -0.005568 -1.923922 -2.402610 9.682944 0.000000 10.153212 -0.012624 0.000000 -6.511725 0.000000 0.000000 17.065638 0.263754 0.000000 24.405440 0.000000 0.000000 8.137577 0.007754 4.548639 -9.962474 -1.560270 -5.100100 12.306628 9.664178 0.000000 0.352941 0.352941 5.100100 12.306628 9.664178 0.000000 0.352941 0.352941 -2.886765 12.539096 -0.534970 0.000000 5.604690 0.000000 -10.265322 -0.000050 -0.000020 53.035484 0.499965 63.175312 -25.572863 0.000000 -0.000009 -18.596603 0.122206 47.077493 -19.807005 -0.346000 -0.000001 40.460605 16.508710 -7.132203 -1.817488 -1.260972 3.617090 -62.792304 51.980962 74.028205 -2.639243 -0.023618 -0.053143 10.588235 0.000000 0.000000 -2.698978 -0.823875 0.000033 26.117647 0.000000 0.000000 -8.251890 -0.108337 3.749100 15.536266 5.795963 -10.523615 -3.896140 0.288500 -0.000463 -7.764706 0.000000 0.000000 -2.318387 0.159236 -0.000487 -7.764706 0.000000 0.000000 -9.047189 0.040404 1.280809 11.852048 5.013329 -1.324717 -3.918013 0.058125 -0.000245 0.705882 0.000000 0.000000 -2.517173 0.020933 -0.000344 -6.352941 0.000000 0.000000 -8.770376 -0.316066 -1.406740 10.927392 2.879660 7.311335 -3.670816 0.003664 0.000012 0.705882 0.000000 0.000000 -2.391655 0.005686 -0.000005 -6.352941 0.000000 0.000000 -7.380626 -1.009364 -3.361094 15.244516 -9.843489 8.126288 -2.923373 0.065774 -0.000015 0.705882 0.000000 0.000000 -1.903112 -0.013694 0.000004 0.705882 0.000000 0.000000 2.886657 12.539132 -0.534974 0.000000 5.555672 0.000000 10.265323 0.000035 0.000019 -79.710082 -6.838334 15.843466 25.572872 0.000003 0.000003 30.394429 -25.120532 -97.109684 19.806792 -0.345714 0.000008 -83.649890 -17.609193 31.357116 1.812944 -1.252033 3.615281 70.583538 53.159892 -80.290975 2.639235 -0.023623 -0.053106 -31.764706 0.000000 0.000000 2.817296 0.161941 -0.000019 -7.764706 0.000000 0.000000 8.246994 -0.097605 3.748598 -3.945783 5.972327 10.350046 3.896263 0.286875 -0.000004 7.764706 0.000000 0.000000 2.318424 0.158303 -0.000001 7.764706 0.000000 0.000000 9.042166 0.054560 1.280483 0.028990 -4.310234 0.970487 3.918027 0.055923 -0.000003 -3.529412 0.000000 0.000000 2.517179 0.019623 -0.000001 6.352941 0.000000 0.000000 8.765368 -0.298586 -1.407511 0.778355 2.357008 -7.132165 3.670795 0.003694 0.000002 0.705882 0.000000 0.000000 2.391658 0.005747 0.000001 6.352941 0.000000 0.000000 7.375719 -0.989721 -3.362722 -3.702802 -9.669302 -8.122012 2.923453 0.065764 0.000007 0.705882 0.000000 0.000000 1.903052 -0.013621 0.000002 0.705882 0.000000 0.000000
0.000008 0.000008 0.000008 0.000000 -3.998069 0.000000 0.000000 4.130373 -0.008512 0.000000 2.399230 0.000000 0.000000 10.693992 -0.005568 -1.905203 -2.399088 9.578035 0.000000 10.153212 -0.012624 0.000000 -6.511725 0.000000 0.000000 17.065638 0.263754 0.000000 24.405440 0.000000 0.000000 8.137577 0.007754 4.072605 -9.975784 -1.376218 -5.100100 12.306628 9.664178 0.000000 0.352941 0.352941 5.100100 12.306628 9.664178 0.000000 0.352941 0.352941 -2.886765 12.539096 -0.534970 0.000000 5.604690 0.000000 -10.265322 -0.000050 -0.000020 53.042077 2.264493 61.005955 -25.572863 0.000000 -0.000009 -18.643921 1.556407 47.808356 -19.807005 -0.346000 -0.000001 42.459982 15.114633 -9.367209 -1.817488 -1.260972 3.617090 -62.792304 51.980962 74.028205 -2.639243 -0.023618 -0.053143 10.588235 0.000000 0.000000 -2.698978 -0.823875 0.000033 26.117647 0.000000 0.000000 -8.251890 -0.108337 3.749100 20.195607 5.795963 -10.523615 -3.896140 0.288500 -0.000463 -7.764706 0.000000 0.000000 -2.318387 0.159236 -0.000487 -7.764706 0.000000 0.000000 -9.047189 0.040404 1.280809 16.427561 5.189235 -1.325080 -3.918013 0.058125 -0.000245 0.705882 0.000000 0.000000 -2.517173 0.020933 -0.000344 -6.352941 0.000000 0.000000 -8.770376 -0.316066 -1.406740 15.586733 2.879660 7.311335 -3.670816 0.003664 0.000012 0.705882 0.000000 0.000000 -2.391655 0.005686 -0.000005 -6.352941 0.000000 0.000000 -7.380626 -1.009364 -3.361094 19.903857 -9.843489 8.126288 -2.923373 0.065774 -0.000015 0.705882 0.000000 0.000000 -1.903112 -0.013694 0.000004 0.705882 0.000000 0.000000 2.886657 12.539132 -0.534974 0.000000 5.555672 0.000000 10.265323 0.000035 0.000019 -79.612242 -6.698355 12.205128 25.572872 0.000003 0.000003 30.681137 -27.314389 -98.786102 19.806792 -0.345714 0.000008 -81.158391 -14.911940 31.269767 1.812944 -1.252033 3.615281 70.581517 53.159995 -80.294183 2.639235 -0.023623 -0.053106 -31.764706 0.000000 0.000000 2.817296 0.161941 -0.000019 -7.764706 0.000000 0.000000 8.246994 -0.097605 3.748598 -3.945783 5.972327 10.350046 3.896263 0.286875 -0.000004 7.764706 0.000000 0.000000 2.318424 0.158303 -0.000001 7.764706 0.000000 0.000000 9.042166 0.054560 1.280483 -0.058922 -4.310234 0.970487 3.918027 0.055923 -0.000003 -3.529412 0.000000 0.000000 2.517179 0.019623 -0.000001 6.352941 0.000000 0.000000 8.765368 -0.298586 -1.407511 0.778355 2.357008 -7.132165 3.670795 0.003694 0.000002 0.705882 0.000000 0.000000 2.391658 0.005747 0.000001 6.352941 0.000000 0.000000 7.375719 -0.989721 -3.362722 -3.790714 -9.669302 -8.122012 2.923453 0.065764 0.000007 0.705882 0.000000 0.000000 1.903052 -0.013621 0.000002 0.705882 0.000000 0.000000
0.000008 0.000008 0.000008 0.000000 -3.998069 0.000000 0.000000 4.130373 -0.008512 0.000000 2.399230 0.000000 0.000000 10.693992 -0.005568 -1.886185 -2.395834 9.487178 0.000000 10.153212 -0.012624 0.000000 -6.511725 0.000000 0.000000 17.065638 0.263754 0.000000 24.405440 0.000000 0.000000 8.137577 0.007754 3.528974 -9.992518 -1.163023 -5.100100 12.306628 9.664178 0.000000 0.352941 0.352941 5.100100 12.306628 9.664178 0.000000 0.352941 0.352941 -2.886765 12.539096 -0.534970 0.000000 5.604690 0.000000 -10.265322 -0.000050 -0.000020 53.297663 3.981113 58.429141 -25.572863 0.000000 -0.000009 -18.871193 2.836420 48.800435 -19.807005 -0.346000 -0.000001 44.912743 13.380016 -12.077472 -1.817488 -1.260972 3.617090 -62.790295 51.981130 74.031446 -2.639243 -0.023618 -0.053143 10.588235 0.000000 0.000000 -2.698978 -0.823875 0.000033 26.117647 0.000000 0.000000 -8.251890 -0.108337 3.749100 23.943535 5.622968 -10.520403 -3.896140 0.288500 -0.000463 -7.764706 0.000000 0.000000 -2.318387 0.159236 -0.000487 -7.764706 0.000000 0.000000 -9.047189 0.040404 1.280809 20.103889 5.189579 -1.148403 -3.918013 0.058125 -0.000245 0.705882 0.000000 0.000000 -2.517173 0.020933 -0.000344 -6.352941 0.000000 0.000000 -8.770376 -0.316066 -1.406740 19.335142 3.052965 7.488695 -3.670816 0.003664 0.000012 0.705882 0.000000 0.000000 -2.391655 0.005686 -0.000005 -6.352941 0.000000 0.000000 -7.380626 -1.009364 -3.361094 23.596164 -9.843489 8.126288 -2.923373 0.065774 -0.000015 0.705882 0.000000 0.000000 -1.903112 -0.013694 0.000004 0.705882 0.000000 0.000000 2.886657 12.539132 -0.534974 0.000000 5.555672 0.000000 10.265323 0.000035 0.000019 -79.451258 -6.313951 7.698727 25.572872 0.000003 0.000003 31.015110 -29.517944 -100.450565 19.806792 -0.345714 0.000008 -78.373592 -11.774178 30.991874 1.812944 -1.252033 3.615281 70.581517 53.159995 -80.294183 2.639235 -0.023623 -0.053106 -31.764706 0.000000 0.000000 2.817296 0.161941 -0.000019 -7.764706 0.000000 0.000000 8.246994 -0.097605 3.748598 -3.945783 5.972327 10.350046 3.896263 0.286875 -0.000004 7.764706 0.000000 0.000000 2.318424 0.158303 -0.000001 7.764706 0.000000 0.000000 9.042166 0.054560 1.280483 -0.058922 -4.310234 0.970487 3.918027 0.055923 -0.000003 -3.529412 0.000000 0.000000 2.517179 0.019623 -0.000001 6.352941 0.000000 0.000000 8.765368 -0.298586 -1.407511 0.778355 2.357008 -7.132165 3.670795 0.003694 0.000002 0.705882 0.000000 0.000000 2.391658 0.005747 0.000001 6.352941 0.000000 0.000000 7.375719 -0.989721 -3.362722 -3.790714 -9.669302 -8.122012 2.923453 0.065764 0.000007 0.705882 0.000000 0.000000 1.903052 -0.013621 0.000002 0.705882 0.000000 0.000000
